# xmcd
#
# Track frame offsets:
#	150
#	19801
#	37359
#	54841
#	74360
#	91008
#	108210
#	119695
#	133599
#	151623
#	168576
#	190264
#
# Disc length: 2767 seconds
#
# Revision: 2
# Processed by: cddbd v1.5.2PL0 Copyright (c) Steve Scherf et al.
# Submitted via: audiograbber 1.83.01
#
DISCID=9c0acd0c
DTITLE=Kasey Chambers - Bittersweet
DYEAR=2014
DGENRE=Country
TTITLE0=Oh Grace
TTITLE1=Is God Real?
TTITLE2=Wheelbarrow
TTITLE3=I Would Do
TTITLE4=Hell Of A Way To Go
TTITLE5=House On A Hill
TTITLE6=Stalker
TTITLE7=Heaven Or Hell
TTITLE8=Bittersweet (with Bernard Fanning)
TTITLE9=Too Late To Save Me
TTITLE10=Christmas Day
TTITLE11=I'm Alive
EXTD=
EXTT0=
EXTT1=
EXTT2=
EXTT3=
EXTT4=
EXTT5=
EXTT6=
EXTT7=
EXTT8=
EXTT9=
EXTT10=
EXTT11=
PLAYORDER=
